TITLE ""
FILE "1Q_t_1759-1767.mp3" MP3
  TRACK 01 AUDIO
    TITLE "1Q_t_1759-1767_01"
    INDEX 01 00:00:00
  TRACK 02 AUDIO
    TITLE "1Q_t_1759-1767_02"
    INDEX 01 00:01:18
  TRACK 03 AUDIO
    TITLE "1Q_t_1759-1767_03"
    INDEX 01 00:01:29
  TRACK 04 AUDIO
    TITLE "1Q_t_1759-1767_04"
    INDEX 01 00:03:07
  TRACK 05 AUDIO
    TITLE "1Q_t_1759-1767_05"
    INDEX 01 00:03:16
  TRACK 06 AUDIO
    TITLE "1Q_t_1759-1767_06"
    INDEX 01 00:07:53
  TRACK 07 AUDIO
    TITLE "1Q_t_1759-1767_07"
    INDEX 01 00:08:25
  TRACK 08 AUDIO
    TITLE "1Q_t_1759-1767_08"
    INDEX 01 00:09:29
  TRACK 09 AUDIO
    TITLE "1Q_t_1759-1767_09"
    INDEX 01 00:09:39
  TRACK 10 AUDIO
    TITLE "1Q_t_1759-1767_10"
    INDEX 01 00:11:18
  TRACK 11 AUDIO
    TITLE "1Q_t_1759-1767_11"
    INDEX 01 00:11:28
  TRACK 12 AUDIO
    TITLE "1Q_t_1759-1767_12"
    INDEX 01 00:16:72
  TRACK 13 AUDIO
    TITLE "1Q_t_1759-1767_13"
    INDEX 01 00:17:42
  TRACK 14 AUDIO
    TITLE "1Q_t_1759-1767_14"
    INDEX 01 00:18:47
  TRACK 15 AUDIO
    TITLE "1Q_t_1759-1767_15"
    INDEX 01 00:18:57
  TRACK 16 AUDIO
    TITLE "1Q_t_1759-1767_16"
    INDEX 01 00:20:66
  TRACK 17 AUDIO
    TITLE "1Q_t_1759-1767_17"
    INDEX 01 00:20:74
  TRACK 18 AUDIO
    TITLE "1Q_t_1759-1767_18"
    INDEX 01 00:26:04
  TRACK 19 AUDIO
    TITLE "1Q_t_1759-1767_19"
    INDEX 01 00:26:51
  TRACK 20 AUDIO
    TITLE "1Q_t_1759-1767_20"
    INDEX 01 00:27:70
  TRACK 21 AUDIO
    TITLE "1Q_t_1759-1767_21"
    INDEX 01 00:28:03
  TRACK 22 AUDIO
    TITLE "1Q_t_1759-1767_22"
    INDEX 01 00:30:02
  TRACK 23 AUDIO
    TITLE "1Q_t_1759-1767_23"
    INDEX 01 00:30:09
  TRACK 24 AUDIO
    TITLE "1Q_t_1759-1767_24"
    INDEX 01 00:36:08
  TRACK 25 AUDIO
    TITLE "1Q_t_1759-1767_25"
    INDEX 01 00:36:53
  TRACK 26 AUDIO
    TITLE "1Q_t_1759-1767_26"
    INDEX 01 00:38:09
  TRACK 27 AUDIO
    TITLE "1Q_t_1759-1767_27"
    INDEX 01 00:38:21
  TRACK 28 AUDIO
    TITLE "1Q_t_1759-1767_28"
    INDEX 01 00:40:25
  TRACK 29 AUDIO
    TITLE "1Q_t_1759-1767_29"
    INDEX 01 00:40:35
  TRACK 30 AUDIO
    TITLE "1Q_t_1759-1767_30"
    INDEX 01 00:45:31
  TRACK 31 AUDIO
    TITLE "1Q_t_1759-1767_31"
    INDEX 01 00:46:01
  TRACK 32 AUDIO
    TITLE "1Q_t_1759-1767_32"
    INDEX 01 00:47:14
  TRACK 33 AUDIO
    TITLE "1Q_t_1759-1767_33"
    INDEX 01 00:47:24
  TRACK 34 AUDIO
    TITLE "1Q_t_1759-1767_34"
    INDEX 01 00:49:75
  TRACK 35 AUDIO
    TITLE "1Q_t_1759-1767_35"
    INDEX 01 00:50:08
  TRACK 36 AUDIO
    TITLE "1Q_t_1759-1767_36"
    INDEX 01 00:55:51
  TRACK 37 AUDIO
    TITLE "1Q_t_1759-1767_37"
    INDEX 01 00:56:25
  TRACK 38 AUDIO
    TITLE "1Q_t_1759-1767_38"
    INDEX 01 00:57:49
  TRACK 39 AUDIO
    TITLE "1Q_t_1759-1767_39"
    INDEX 01 00:57:59
  TRACK 40 AUDIO
    TITLE "1Q_t_1759-1767_40"
    INDEX 01 01:00:30
  TRACK 41 AUDIO
    TITLE "1Q_t_1759-1767_41"
    INDEX 01 01:00:40
  TRACK 42 AUDIO
    TITLE "1Q_t_1759-1767_42"
    INDEX 01 01:06:48
  TRACK 43 AUDIO
    TITLE "1Q_t_1759-1767_43"
    INDEX 01 01:07:20
  TRACK 44 AUDIO
    TITLE "1Q_t_1759-1767_44"
    INDEX 01 01:08:22
  TRACK 45 AUDIO
    TITLE "1Q_t_1759-1767_45"
    INDEX 01 01:08:32
  TRACK 46 AUDIO
    TITLE "1Q_t_1759-1767_46"
    INDEX 01 01:10:19
  TRACK 47 AUDIO
    TITLE "1Q_t_1759-1767_47"
    INDEX 01 01:10:27
  TRACK 48 AUDIO
    TITLE "1Q_t_1759-1767_48"
    INDEX 01 01:16:66
  TRACK 49 AUDIO
    TITLE "1Q_t_1759-1767_49"
    INDEX 01 01:17:38
  TRACK 50 AUDIO
    TITLE "1Q_t_1759-1767_50"
    INDEX 01 01:18:40
  TRACK 51 AUDIO
    TITLE "1Q_t_1759-1767_51"
    INDEX 01 01:18:50
  TRACK 52 AUDIO
    TITLE "1Q_t_1759-1767_52"
    INDEX 01 01:20:56
  TRACK 53 AUDIO
    TITLE "1Q_t_1759-1767_53"
    INDEX 01 01:20:64
  TRACK 54 AUDIO
    TITLE "1Q_t_1759-1767_54"
    INDEX 01 01:26:49
